<svg xmlns="http://www.w3.org/2000/svg" width="249" height="215" viewBox="0 0 249 215"><g transform="translate(0.103)" opacity="0.32"><circle cx="13.5" cy="13.5" r="13.5" transform="translate(-0.103)" fill="#701eff"/><circle cx="13.5" cy="13.5" r="13.5" transform="translate(36.897)" fill="#701eff"/><circle cx="13.5" cy="13.5" r="13.5" transform="translate(73.897)" fill="#701eff"/><circle cx="13.5" cy="13.5" r="13.5" transform="translate(110.897)" fill="#701eff"/><circle cx="13.5" cy="13.5" r="13.5" transform="translate(147.897)" fill="#701eff"/><circle cx="13.5" cy="13.5" r="13.5" transform="translate(184.897)" fill="#701eff"/><circle cx="13.5" cy="13.5" r="13.5" transform="translate(221.897)" fill="#701eff"/><circle cx="13.5" cy="13.5" r="13.5" transform="translate(-0.103 47)" fill="#701eff"/><circle cx="13.5" cy="13.5" r="13.5" transform="translate(36.897 47)" fill="#701eff"/><circle cx="13.5" cy="13.5" r="13.5" transform="translate(73.897 47)" fill="#701eff"/><circle cx="13.5" cy="13.5" r="13.5" transform="translate(110.897 47)" fill="#701eff"/><circle cx="13.5" cy="13.5" r="13.5" transform="translate(147.897 47)" fill="#701eff"/><circle cx="13.5" cy="13.5" r="13.5" transform="translate(184.897 47)" fill="#701eff"/><circle cx="13.5" cy="13.5" r="13.5" transform="translate(221.897 47)" fill="#701eff"/><circle cx="13.5" cy="13.5" r="13.5" transform="translate(-0.103 94)" fill="#701eff"/><circle cx="13.5" cy="13.5" r="13.5" transform="translate(36.897 94)" fill="#701eff"/><circle cx="13.5" cy="13.5" r="13.5" transform="translate(73.897 94)" fill="#701eff"/><circle cx="13.5" cy="13.5" r="13.5" transform="translate(110.897 94)" fill="#701eff"/><circle cx="13.5" cy="13.5" r="13.5" transform="translate(147.897 94)" fill="#701eff"/><circle cx="13.5" cy="13.5" r="13.5" transform="translate(184.897 94)" fill="#701eff"/><circle cx="13.5" cy="13.5" r="13.5" transform="translate(221.897 94)" fill="#701eff"/><circle cx="13.5" cy="13.5" r="13.5" transform="translate(-0.103 141)" fill="#701eff"/><circle cx="13.5" cy="13.5" r="13.5" transform="translate(36.897 141)" fill="#701eff"/><circle cx="13.5" cy="13.5" r="13.5" transform="translate(73.897 141)" fill="#701eff"/><circle cx="13.5" cy="13.5" r="13.5" transform="translate(110.897 141)" fill="#701eff"/><circle cx="13.5" cy="13.5" r="13.5" transform="translate(147.897 141)" fill="#701eff"/><circle cx="13.5" cy="13.5" r="13.5" transform="translate(184.897 141)" fill="#701eff"/><circle cx="13.5" cy="13.5" r="13.5" transform="translate(221.897 141)" fill="#701eff"/><circle cx="13.5" cy="13.5" r="13.5" transform="translate(-0.103 188)" fill="#701eff"/><circle cx="13.5" cy="13.5" r="13.5" transform="translate(36.897 188)" fill="#701eff"/><circle cx="13.5" cy="13.5" r="13.5" transform="translate(73.897 188)" fill="#701eff"/><circle cx="13.5" cy="13.5" r="13.5" transform="translate(110.897 188)" fill="#701eff"/><circle cx="13.5" cy="13.5" r="13.5" transform="translate(147.897 188)" fill="#701eff"/><circle cx="13.5" cy="13.5" r="13.5" transform="translate(184.897 188)" fill="#701eff"/><circle cx="13.5" cy="13.5" r="13.5" transform="translate(221.897 188)" fill="#701eff"/></g></svg>